<svg width="142" height="174" viewBox="0 0 142 174" fill="none"
    xmlns="http://www.w3.org/2000/svg">
    <mask id="mask0_0_1" style="mask-type:alpha" maskUnits="userSpaceOnUse" x="0" y="0" width="143" height="175">
        <path d="M24.3644 98.9728C24.6303 99.3981 24.9243 99.9326 25.2032 100.523V100.524C28.5183 107.531 35.773 115.184 42.8224 119.197L43.504 119.574C44.2971 120 44.9905 120.436 45.5021 120.803C45.4971 120.808 45.4924 120.813 45.4874 120.818C44.9195 121.361 44.1115 122.086 43.1281 122.938C41.1654 124.637 38.5558 126.799 35.8878 128.948C33.22 131.097 30.506 133.224 28.3361 134.853C27.2497 135.668 26.3102 136.351 25.5861 136.847C25.2233 137.095 24.927 137.289 24.7003 137.426C24.4405 137.583 24.3636 137.609 24.4044 137.595C23.3767 137.943 22.0981 138.033 20.8976 137.865C19.6674 137.693 18.7404 137.284 18.2726 136.849V136.848C17.8075 136.416 17.2474 136.083 16.6935 135.886C16.2032 135.711 15.4331 135.541 14.6915 135.832L14.6886 135.833C14.3004 135.986 13.9537 136.247 13.6935 136.465C13.4081 136.705 13.109 136.996 12.8116 137.311C12.2155 137.942 11.5586 138.74 10.9259 139.581C9.76445 141.126 8.56359 142.982 7.96692 144.376L7.85559 144.649C7.52443 145.506 7.21638 146.372 7.27258 147.215C7.33838 148.2 7.8634 148.883 8.34583 149.431V149.43C9.25191 150.458 10.8254 151.219 12.3917 151.721C14.0195 152.243 15.9121 152.571 17.6866 152.571C19.9659 152.571 22.9825 151.758 26.5206 150.341C30.0984 148.908 34.3532 146.799 39.1583 144.073C43.783 141.451 49.5123 138.637 52.3517 137.554L52.88 137.361C55.1583 136.572 56.4595 136.186 58.3673 135.974C60.3434 135.754 62.9776 135.721 67.9142 135.72C72.8374 135.719 75.4702 135.75 77.421 135.964C79.2999 136.17 80.5485 136.545 82.7091 137.311C96.0255 142.03 105.002 149.854 113.427 164.265C114.952 166.875 115.623 168.694 115.705 169.928C115.744 170.51 115.647 170.902 115.498 171.183C115.35 171.462 115.093 171.744 114.627 172.011C114.042 172.347 113.628 172.473 113.32 172.496C113.046 172.517 112.763 172.465 112.403 172.254C111.565 171.762 110.489 170.532 108.888 167.97C101.554 156.234 95.8996 150.253 87.8575 146.048C81.2637 142.6 75.6812 141.28 67.7999 141.28C58.1572 141.28 50.6868 143.566 42.7423 148.949C39.6401 151.051 30.6253 155.417 25.9161 157.077C17.0585 160.201 8.26932 158.411 3.9386 153.215C1.9019 150.771 1.16596 148.171 1.63782 145.261C2.12308 142.268 3.91063 138.81 7.23645 134.811L10.1525 131.303L10.8107 130.512L10.3087 129.612L8.88391 127.062C7.50577 124.595 7.347 122.291 8.28137 120.095L8.48254 119.657C8.87941 118.856 10.445 116.571 12.2921 114.069C14.1126 111.604 16.0531 109.131 17.1144 107.987L17.1154 107.988C17.7159 107.342 19.7435 104.772 21.6056 102.317C22.5257 101.103 23.4265 100.008 24.13 99.2257C24.2111 99.1355 24.2907 99.0524 24.3644 98.9728ZM67.3927 45.0851C68.3812 49.069 71.0789 55.2583 73.3546 58.7726C78.8417 67.245 86.2975 72.6887 96.9259 76.0929L98.3956 76.5636L98.2628 76.6798L98.2618 76.6808C97.0947 77.6949 91.2531 82.5974 85.2706 87.5851C79.2916 92.5694 69.5513 100.743 63.6232 105.749C60.674 108.24 57.8739 110.499 55.7423 112.13C54.6742 112.947 53.7882 113.596 53.1417 114.035C52.8719 114.218 52.6578 114.352 52.5001 114.445C52.4562 114.434 52.4035 114.424 52.3439 114.405C52.0844 114.326 51.7506 114.201 51.3488 114.028C50.5465 113.684 49.5518 113.184 48.4718 112.583C46.3077 111.379 43.902 109.826 42.1456 108.429C39.7418 106.517 36.8287 103.098 34.4962 99.675C33.3377 97.9749 32.3501 96.3148 31.6564 94.8888C30.9745 93.4872 30.669 92.4902 30.629 91.9435C30.6333 91.9319 30.6378 91.9185 30.6437 91.9035C30.696 91.7708 30.7916 91.5705 30.9464 91.2921C31.2549 90.7374 31.7388 89.9802 32.4152 89.0109C33.7637 87.0781 35.8014 84.4056 38.5255 81.0021C43.0655 75.3298 49.8303 66.8127 53.5597 62.0734C56.3531 58.5236 59.8407 54.1281 62.3947 50.9347L64.5773 48.2179C65.6061 46.9456 66.5722 45.7791 67.339 44.8761C67.3566 44.945 67.3752 45.0146 67.3927 45.0851ZM70.047 69.8507C69.6369 69.8507 69.3257 70.0199 69.2765 70.0451C69.1586 70.1054 69.052 70.1733 68.9708 70.2287C68.804 70.3425 68.6174 70.4889 68.4269 70.6457C68.0394 70.9644 67.5391 71.4091 66.9679 71.9377C65.8206 72.9994 64.3292 74.4532 62.7667 76.0461C61.3453 77.4949 60.213 78.6915 59.3546 79.6916C58.5099 80.6757 57.8606 81.5483 57.4728 82.3439C57.0763 83.1574 56.8594 84.0891 57.213 85.0373C57.5412 85.9171 58.2498 86.4867 58.8654 86.8849C59.4004 87.231 60.0548 87.3968 60.8019 87.2189C61.4233 87.0709 62.0039 86.7061 62.5519 86.2873C63.6627 85.438 65.2617 83.8665 67.7384 81.3332C69.3711 79.6633 70.8604 78.0903 71.9454 76.8986C72.4861 76.3048 72.9364 75.7941 73.257 75.4093C73.4148 75.2199 73.5575 75.0411 73.6671 74.8888C73.7198 74.8156 73.7854 74.7211 73.8439 74.6183C73.8726 74.5677 73.9157 74.4875 73.9552 74.3888C73.9826 74.3204 74.0704 74.0963 74.0704 73.8C74.0704 73.3849 73.9137 73.042 73.8478 72.9035C73.7562 72.711 73.6419 72.5225 73.5275 72.3527C73.2967 72.0104 72.9951 71.641 72.67 71.3068L72.6691 71.3058L72.4025 71.047C72.1285 70.7959 71.8357 70.569 71.5529 70.3859C71.3644 70.2639 71.1561 70.1449 70.9406 70.0519C70.7799 69.9826 70.5098 69.8801 70.1876 69.8556L70.047 69.8507ZM76.8126 22.466C76.8735 22.6811 76.9418 22.8912 77.0089 23.0802C77.2006 23.6207 77.4688 24.2739 77.7882 24.9972C78.4288 26.4477 79.3095 28.256 80.2902 30.1544C82.2453 33.9392 84.6502 38.1835 86.4161 40.757C93.4064 50.9455 104.237 59.7678 116.158 65.0158H116.159C117.699 65.6934 119.111 66.3689 120.151 66.9113C119.774 67.0849 119.335 67.2705 118.841 67.4591C116.85 68.2198 114.222 68.9616 111.89 69.3341C110.019 69.6328 108.742 69.7571 107.399 69.7169C106.041 69.6763 104.56 69.4662 102.279 69.0382C89.3198 66.6063 79.7517 58.2352 75.8214 45.9367C74.8212 42.8068 74.307 38.6986 74.3136 34.7199C74.3202 30.7173 74.854 27.0444 75.8146 24.7316C76.1427 23.942 76.4938 23.1496 76.8126 22.466ZM99.7697 2.34781C120.287 -2.23084 139.115 12.2606 140.44 33.8146C140.979 42.5982 137.856 51.8033 132.506 57.505C130.794 59.3288 129.831 60.0095 128.814 60.2306C127.736 60.4647 126.314 60.2517 123.488 59.3898C109.86 55.2327 96.0927 43.4465 88.3615 29.1808C85.7984 24.4511 83.5274 18.2519 83.0363 14.8195C82.8023 13.1848 82.8119 12.8553 82.924 12.5734C82.9792 12.4344 83.0974 12.2295 83.4191 11.8615C83.7469 11.4864 84.2051 11.0293 84.8839 10.3615C86.4933 8.77786 89.0301 7.02947 91.8097 5.53238C94.587 4.0365 97.4829 2.85817 99.7697 2.34781Z" fill="#CDCDCD" fill-opacity="0.65" stroke="black" stroke-width="3"/>
    </mask>
    <g mask="url(#mask0_0_1)">
        <path fill-rule="evenodd" clip-rule="evenodd" d="M99.4429 0.884105C94.5107 1.98489 87.3262 5.85423 83.8321 9.29244C81.1633 11.9181 81.1211 12.0253 81.5514 15.0324C82.0767 18.7034 84.4314 25.0772 87.0425 29.8955C94.9354 44.4596 108.996 56.537 123.05 60.8241C128.652 62.5327 130.151 62.2068 133.6 58.532C139.265 52.4949 142.499 42.8697 141.937 33.7222C140.558 11.2874 120.899 -3.90426 99.4429 0.884105ZM76.5024 19.8207C76.164 20.2754 75.2313 22.2264 74.4297 24.1556C72.2893 29.3082 72.2719 39.7561 74.393 46.3933C78.495 59.2291 88.5135 67.9812 102.002 70.5125C106.596 71.3747 108.303 71.4257 112.126 70.8154C117.015 70.0348 123.039 67.7331 122.725 66.7649C122.621 66.4454 119.938 65.0398 116.763 63.6424C105.082 58.5001 94.4759 49.8532 87.6529 39.9085C84.2258 34.9141 78.1678 23.1875 78.1498 21.5121C78.1442 21.0369 77.9101 20.2754 77.6288 19.8207C77.2103 19.1428 77.0072 19.1428 76.5024 19.8207ZM63.4109 47.2747C61.0705 50.1683 56.1072 56.4108 52.3809 61.1462C48.6546 65.8816 41.8924 74.3945 37.3545 80.0643C31.8919 86.8891 29.1101 90.8758 29.1225 91.863C29.1666 95.3816 36.0734 105.516 41.2124 109.603C44.8854 112.524 51.1235 115.994 52.7007 115.994C53.3148 115.994 58.6649 111.9 64.5907 106.895C70.5164 101.891 80.2548 93.7196 86.2315 88.7373C92.2082 83.7544 98.065 78.8391 99.246 77.813L101.395 75.9488L97.3832 74.6643C87.0431 71.3524 79.8897 66.1042 74.6135 57.9574C72.4258 54.5791 69.7961 48.5426 68.8485 44.7237C68.4785 43.2326 68.0612 42.0131 67.9202 42.0131C67.7799 42.0131 65.7506 44.3812 63.4109 47.2747ZM71.595 72.3524C72.1315 72.9041 72.5705 73.5552 72.5705 73.8001C72.5705 74.0451 69.9135 76.9635 66.6659 80.285C61.6635 85.4018 60.5961 86.2175 59.6802 85.625C57.5131 84.2232 58.1719 82.8718 63.8375 77.0968C66.9379 73.936 69.7322 71.3505 70.047 71.3505C70.3618 71.3505 71.0579 71.8014 71.595 72.3524ZM20.4105 101.41C18.5321 103.887 16.5544 106.388 16.016 106.967C13.7676 109.39 8.07468 117.101 7.13829 118.992C5.74363 121.811 5.89079 124.78 7.57419 127.793L8.99928 130.344L6.08267 133.852C-0.732288 142.047 -1.80529 148.665 2.78665 154.176C7.64685 160.007 17.1803 161.749 26.4151 158.492C31.2114 156.801 40.3493 152.382 43.5839 150.191C51.2787 144.976 58.4557 142.781 67.8004 142.781C75.4561 142.781 80.7975 144.048 87.1629 147.377C94.8696 151.406 100.349 157.137 107.616 168.764C110.8 173.86 112.59 174.909 115.373 173.312C118.019 171.794 117.821 168.81 114.722 163.508C106.15 148.846 96.915 140.754 83.21 135.897C78.8117 134.338 77.7071 134.217 67.9134 134.22C58.0943 134.223 57.0107 134.343 52.3896 135.943C49.6574 136.889 43.3702 139.96 38.4182 142.768C28.8797 148.178 21.6537 151.072 17.6864 151.072C14.4779 151.072 10.7342 149.872 9.47183 148.439C8.58635 147.434 8.55716 146.997 9.25511 145.189C10.1946 142.754 13.9744 137.728 15.2392 137.229C15.7186 137.041 16.624 137.363 17.2517 137.947C18.8097 139.395 22.3175 139.886 24.8864 139.016C26.9461 138.317 47.1251 122.063 47.5288 120.778C47.6393 120.427 46.1471 119.291 44.2135 118.253C37.2272 114.503 29.8391 106.815 26.5592 99.8817C25.7737 98.2203 24.8373 96.8714 24.4784 96.8842C24.1195 96.8963 22.2889 98.9333 20.4105 101.41Z" fill="#CDCDCD" fill-opacity="0.21"/>
        <rect width="142" height="174" fill="#DADADA"/>
    </g>
</svg>
